Coordinates
version=1
nRows=17
nColumns=24
inDegrees=yes

Units are S.I. units (second, meters, Newtons, ...)
Angles are in degrees.

endheader
time	pelvis_tilt	pelvis_list	pelvis_rotation	pelvis_tx	pelvis_ty	pelvis_tz	hip_flexion_r	hip_adduction_r	hip_rotation_r	knee_angle_r	ankle_angle_r	subtalar_angle_r	mtp_angle_r	hip_flexion_l	hip_adduction_l	hip_rotation_l	knee_angle_l	ankle_angle_l	subtalar_angle_l	mtp_angle_l	lumbar_extension	lumbar_bending	lumbar_rotation
      0.50400000	      0.55132904	      2.20907018	      2.70341125	     -0.86329705	      0.98876653	      0.29700229	     23.05166510	     -0.75465743	     -4.09601513	     -3.27229418	      5.49823559	    -10.57050140	      0.07704727	    -15.92603539	      5.29143069	      4.58217342	     -7.36342543	      9.32890306	     -3.87231150	      0.52692794	     -1.07868799	     -0.12384133	     -0.98431273
      0.50816667	      0.45071138	      2.21150918	      2.78884178	     -0.85761677	      0.98823495	      0.29737979	     23.13336345	     -0.72301212	     -4.20097666	     -3.44831807	      5.44375275	    -10.85797465	      0.12816479	    -15.73998451	      5.23649024	      4.31883303	     -8.12117785	      9.38804076	     -3.43831076	      0.84995909	     -0.93120585	     -0.14097491	     -1.04709236
      0.51233333	      0.41980788	      2.17475971	      2.86353106	     -0.85180193	      0.98776622	      0.29770297	     23.14703075	     -0.65842393	     -4.38825380	     -3.70109480	      5.33426695	    -11.01970268	      0.13703609	    -15.83702810	      5.14715833	      4.31272631	     -8.53297059	      9.29577593	     -3.40083892	      0.91920602	     -0.83629145	     -0.08594095	     -1.07042815
      0.51650000	      0.31528599	      2.14179440	      2.94729932	     -0.84601396	      0.98722580	      0.29807150	     23.23650447	     -0.59606339	     -4.47479082	     -3.99817501	      5.19747830	    -11.30179965	      0.17986301	    -15.77539477	      5.05215765	      4.17710151	     -9.09316048	      9.25972039	     -3.13959387	      1.13098022	     -0.67435562	     -0.05857742	     -1.20738629
      0.52066667	      0.32244909	      2.08200397	      2.99288949	     -0.84011555	      0.98686327	      0.29845397	     23.22091788	     -0.49800230	     -4.62283682	     -4.37898889	      5.04742808	    -11.47210020	      0.18553079	    -15.89697909	      4.94096185	      4.11535009	     -9.52951513	      9.08077493	     -3.12963179	      1.17408234	     -0.63859483	      0.01047042	     -1.21812679
      0.52483333	      0.21681788	      2.02825286	      3.07726838	     -0.83424172	      0.98639429	      0.29884242	     23.28967805	     -0.41127042	     -4.64024038	     -4.72543604	      4.77916022	    -11.95521661	      0.25077258	    -15.78193362	      4.81863900	      3.92870746	    -10.19126489	      9.05070386	     -2.76412659	      1.46983492	     -0.44735893	      0.08005945	     -1.36417448
      0.52900000	      0.15940485	      1.96026158	      3.12662731	     -0.82829995	      0.98601876	      0.29926365	     23.30826670	     -0.29608059	     -4.62510945	     -5.11482812	      4.48551755	    -12.49067209	      0.35588441	    -15.74761406	      4.69151232	      3.76813342	    -10.78899096	      8.91577882	     -2.56635521	      1.92703266	     -0.31222575	      0.16470060	     -1.42497066
      0.53316667	      0.16669121	      1.88889497	      3.16011793	     -0.82228837	      0.98575945	      0.29965424	     23.29187046	     -0.18849533	     -4.74690754	     -5.61286679	      4.26302057	    -12.65858960	      0.36321483	    -15.82106645	      4.57378265	      3.70565775	    -11.30853834	      8.63785517	     -2.60039680	      1.97885703	     -0.27293080	      0.25641975	     -1.42800544
      0.53733333	      0.06391781	      1.79185907	      3.20788999	     -0.81627713	      0.98539378	      0.30012057	     23.32072919	     -0.03043617	     -4.59786365	     -5.98878428	      3.90097218	    -13.53900226	      0.54490120	    -15.67716351	      4.40895839	      3.47317974	    -12.01727094	      8.45692462	     -2.24825015	      2.80267212	     -0.06375885	      0.38094127	     -1.52990572
      0.54150000	     -0.00066711	      1.72248852	      3.23119288	     -0.81021266	      0.98511097	      0.30053002	     23.35284057	      0.08056443	     -4.62139892	     -6.46500686	      3.44538799	    -13.90885204	      1.53907092	    -15.61068587	      4.30086949	      3.37886846	    -12.64057243	      8.07330147	     -2.36933709	      7.44454727	      0.08644711	      0.47123214	     -1.48471996
      0.54566667	     -0.07388774	      1.62860519	      3.26643966	     -0.80411608	      0.98485462	      0.30092106	     23.39785774	      0.20625717	     -4.69715239	     -6.97660084	      3.03841208	    -14.15806736	      1.54183062	    -15.50888725	      4.16277157	      3.28451420	    -13.32144143	      7.75021512	     -2.32127684	      7.47244441	      0.24949464	      0.60061845	     -1.54892110
      0.54983333	     -0.15281303	      1.53005026	      3.27654910	     -0.79803689	      0.98461685	      0.30139413	     23.41111403	      0.36723638	     -4.56727764	     -7.42540872	      2.63762810	    -14.82945282	      1.56744305	    -15.33332919	      4.01527748	      3.05759685	    -14.12636431	      7.46869721	     -2.18404608	      7.65560717	      0.42699174	      0.72420974	     -1.61687701
      0.55400000	     -0.20731844	      1.42071130	      3.29070661	     -0.79186418	      0.98447189	      0.30179602	     23.41123518	      0.51464348	     -4.61379944	     -7.91520871	      2.17324746	    -15.07532178	      1.56918913	    -15.22052187	      3.86904398	      2.95922429	    -14.84802729	      7.01089075	     -2.21816808	      7.73913625	      0.57408698	      0.87544995	     -1.60780078
      0.55816667	     -0.31026446	      1.31824138	      3.30671310	     -0.78574416	      0.98429604	      0.30224759	     23.42540157	      0.67051608	     -4.49670516	     -8.33338027	      1.69418973	    -15.63347073	      1.58086345	    -14.96891225	      3.72306977	      2.77787398	    -15.73115117	      6.60963658	     -2.18723845	      7.98144752	      0.79002825	      0.99446628	     -1.62005260
      0.56233333	     -0.34353284	      1.16397716	      3.28477163	     -0.77954342	      0.98425755	      0.30275892	     23.35309627	      0.90476085	     -4.32534655	     -8.75111304	      1.29129783	    -16.41872852	      1.60850442	    -14.80430094	      3.51968028	      2.53350657	    -16.57116235	      6.10528012	     -2.12262656	      8.70617046	      0.91757968	      1.20210822	     -1.61484046
      0.56650000	     -0.39373521	      1.03502650	      3.26763443	     -0.77334921	      0.98422502	      0.30319165	     23.32835341	      1.08002576	     -4.32171959	     -9.22198407	      0.82640612	    -16.64771305	      1.69515168	    -14.59667129	      3.35649727	      2.35431142	    -17.44522147	      5.48616129	     -2.28352529	     13.06374418	      1.06663512	      1.38242045	     -1.57409303
      0.57066667	     -0.45580964	      0.90951710	      3.25771695	     -0.76714985	      0.98422886	      0.30362621	     23.30987941	      1.24610157	     -4.32203302	     -9.69200777	      0.40609773	    -16.85197396	      1.68587908	    -14.34314026	      3.19457855	      2.19430416	    -18.37808252	      4.85660319	     -2.34709540	     13.11216437	      1.22668042	      1.54391270	     -1.58040419
